<svg width="24.000000" height="15.000000" viewBox="0 0 24 15" fill="none" xmlns="http://www.w3.org/2000/svg" xmlns:xlink="http://www.w3.org/1999/xlink">
	<desc>
			Created with Pixso.
	</desc>
	<defs/>
	<path id="Vector" d="M15.66 6.42C17.48 6.42 18.94 4.99 18.94 3.21C18.94 1.43 17.48 0 15.66 0C13.84 0 12.37 1.43 12.37 3.21C12.37 4.99 13.84 6.42 15.66 6.42ZM6.88 6.42C8.71 6.42 10.16 4.99 10.16 3.21C10.16 1.43 8.71 0 6.88 0C5.06 0 3.59 1.43 3.59 3.21C3.59 4.99 5.06 6.42 6.88 6.42ZM6.88 8.57C4.33 8.57 -0.8 9.82 -0.8 12.32L-0.8 13.92C-0.8 14.51 -0.3 15 0.3 15L13.47 15C14.07 15 14.57 14.51 14.57 13.92L14.57 12.32C14.57 9.82 9.44 8.57 6.88 8.57ZM15.66 8.57C15.34 8.57 14.98 8.59 14.6 8.62C14.62 8.63 14.63 8.65 14.64 8.66C15.89 9.55 16.76 10.74 16.76 12.32L16.76 13.92C16.76 14.3 16.68 14.66 16.56 15L22.25 15C22.85 15 23.34 14.51 23.34 13.92L23.34 12.32C23.34 9.82 18.22 8.57 15.66 8.57Z" fill="#686868" fill-opacity="1.000000" fill-rule="nonzero"/>
</svg>
